<svg width="70" height="85" viewBox="0 0 159 185" fill="none" xmlns="http://www.w3.org/2000/svg"><path d="m115.6 69.2 2.6 1.2c7.5 3 15 6 22.4 9.2 2.5 1 2.9 3 1.2 5l-1.7 1.5c-10.8 9-22.6 16.2-35.4 21.7A345.6 345.6 0 0 0 73 123a576 576 0 0 1-17.6 9c-5.5 2.8-10.9 6-16 9.5-5.3 3.5-11 6.5-16.6 9.5-1.5.8-3.3 1.2-5 1.4a10 10 0 0 1-4.6-1C9 149.3 8 145.3 11 141.3c2-2.6 4.3-4.7 6.6-7l2.5-2.4 36.4-41.2c7-8.2 14.1-16 21.3-23.8a100.7 100.7 0 0 1 46-28l8.6-2.3c-2-1.3-3-1.4-3.6 0l-3.3-1.2c-1-.3-1.9-.6-2.3-1.8-.1-.5-.9-1-1.4-1l-6.6-1.5c-.7-.2-1.5-.3-2.2-.6-.7-.3-2.1 0-2-1.4 0-1.5 1.5-1.4 2.6-1.3l9 1c8.2 1.4 16.7 2.5 25 5 2.3.7 4.5 1.6 6.8 2.5 2.7 1.2 3.3 3 2.3 5.7a8.2 8.2 0 0 1-3 4.2c-2.7 1.8-5.3 3.7-8 5.4l-27.5 16-2.6 1.7Z" fill="#adc2a9"></path><path d="m87.1 74.4 23 6.6 7.5 2.4c1.6.6 3 1.4 3.3 3.2.3 1.8-.6 3.3-2.1 4.3-1.3 1-2.7 1.7-4.1 2.4A1590.3 1590.3 0 0 0 13 149.6c-1.3.8-2.8 1.2-4.2 0-1.4-1.1-1.3-2.6-.8-4.1l4.5-10.8 9.8-20.6c3.6-7.6 7-15.3 10.7-22.9 3.8-7.9 8-15.6 12-23.4l5.4-10.6-3.2-1.1-9.6-3c-3.9-1.4-4.4-3.8-1.7-6.9l5.4-5.5 8-6.6L72.7 15c2.7-2.2 5.3-2.9 8.5-1.9l15.3 4.6a3976 3976 0 0 1 43.8 13.6l3 1.2c3.3 1.8 4 4.5 1.3 7.3-1.2 1.4-2.6 2.4-4 3.5-9.7 7-20 12.9-30.3 18.6-6.8 3.8-13.9 7.2-20.9 10.7-.8.4-1.6.8-2.4 1.4l.1.5Z" fill="#fff"></path><path d="m50.7 57.2-3.3-1C44.3 55 41 54 37.8 53c-3.6-1.3-4.3-3.8-1.7-6.7 1.6-1.8 3.3-3.5 5.2-5.2 2.7-2.4 5.5-4.6 8.1-6.8 8-6.5 15.8-12.9 23.5-19.5a8.1 8.1 0 0 1 8.4-1.7l15 4.4 35 10.7c3 .9 6 2 8.9 3 .8.2 1.7.5 2.5 1 4.2 1.9 4.9 5 1.3 8.1-2.9 2.7-6.2 5-9.5 7.1a403.7 403.7 0 0 1-40.7 23l-7 3.4c1.2 1.1 2.5 1.1 3.5 1.5l26 7.7c.7.2 1.5.4 2.3.8 2.7 1.3 3.4 4 1.2 6.2-1.2 1.2-2.7 2-4.2 2.8l-34 18a1244 1244 0 0 0-67.7 38.5c-.6.4-1.3.7-1.9.8-2.2.7-4-.5-4-2.9.2-1.3.6-2.7 1.2-4 3.7-8.5 7.6-16.8 11.5-25.1 4.2-9.2 8.4-18.3 12.8-27.4 3.8-7.7 7.9-15.3 11.8-22.9l5.4-10.6Zm-35 84.5c.2.2.4.4.6.4 31-19.2 63.2-36.1 95.4-54l-5.6-2-24.6-6.7c-.9-.1-1.7-.4-2.5-.8-3.1-1.6-3.5-4.5-.9-7 1.2-1 2.6-1.7 4-2.5 8.4-4.3 17-8.3 25.1-13 10-5.6 19.6-11.7 29.3-17.7l2.7-2-6.6-2.3-51.8-15.8c-1.5-.4-2.4 0-3.4.8L54.1 38.4A319827.2 319827.2 0 0 0 42.9 48l3 1c3 1 6.2 1.8 9 3 2.7 1 3.4 2.9 2 5.5-1.9 4-4 8-6.1 12-4.4 8.5-8.8 16.8-13 25.3L19.1 134l-3.3 7.6Z" fill="#fff"></path></svg>
